<svg xmlns="http://www.w3.org/2000/svg" width="1200" height="720" viewBox="0 0 1200 720">
  <defs>
    <linearGradient id="bg3" x1="0" y1="0" x2="1" y2="1">
      <stop offset="0%" stop-color="#eef6ff"/>
      <stop offset="100%" stop-color="#dcecff"/>
    </linearGradient>
  </defs>
  <rect width="1200" height="720" fill="url(#bg3)"/>
  <rect x="86" y="48" width="1028" height="624" rx="24" fill="#fff" stroke="#c6d9f7" stroke-width="3"/>
  <text x="130" y="102" font-size="34" font-family="Arial, sans-serif" fill="#244b82" font-weight="700">https://e-tgo.ru/create-shop</text>

  <rect x="130" y="132" width="540" height="500" rx="18" fill="#f7fbff" stroke="#d4e3fb"/>
  <text x="164" y="188" font-size="31" font-family="Arial, sans-serif" fill="#24487a" font-weight="700">Создание магазина</text>

  <rect x="164" y="218" width="470" height="46" rx="10" fill="#fff" stroke="#c8dbf8"/>
  <text x="184" y="248" font-size="20" font-family="Arial, sans-serif" fill="#5a759d">Название магазина</text>

  <rect x="164" y="282" width="470" height="56" rx="10" fill="#fff6f6" stroke="#ff9da8" stroke-width="2"/>
  <text x="184" y="317" font-size="20" font-family="Arial, sans-serif" fill="#b73f52">Токен Telegram бота (обязательно)</text>

  <rect x="164" y="356" width="470" height="46" rx="10" fill="#fff" stroke="#c8dbf8"/>
  <text x="184" y="386" font-size="20" font-family="Arial, sans-serif" fill="#5a759d">Название доставки</text>

  <rect x="164" y="420" width="470" height="46" rx="10" fill="#fff" stroke="#c8dbf8"/>
  <text x="184" y="450" font-size="20" font-family="Arial, sans-serif" fill="#5a759d">Стоимость доставки</text>

  <rect x="164" y="500" width="470" height="86" rx="12" fill="#1e63dd"/>
  <text x="263" y="552" font-size="34" font-family="Arial, sans-serif" fill="#fff" font-weight="700">Создать магазин</text>

  <rect x="704" y="132" width="370" height="500" rx="18" fill="#f4f9ff" stroke="#d1e2fb"/>
  <text x="734" y="188" font-size="31" font-family="Arial, sans-serif" fill="#24487a" font-weight="700">Проверка</text>
  <text x="734" y="252" font-size="23" font-family="Arial, sans-serif" fill="#3b6198">1. Токен вставлен без ошибок</text>
  <text x="734" y="296" font-size="23" font-family="Arial, sans-serif" fill="#3b6198">2. Сохраните магазин</text>
  <text x="734" y="340" font-size="23" font-family="Arial, sans-serif" fill="#3b6198">3. Откройте настройки магазина</text>
  <text x="734" y="384" font-size="23" font-family="Arial, sans-serif" fill="#3b6198">4. Нажмите "Подключить бота"</text>
  <text x="734" y="428" font-size="23" font-family="Arial, sans-serif" fill="#3b6198">5. Статус "Бот готов"</text>

  <rect x="734" y="466" width="300" height="132" rx="14" fill="#e8f1ff" stroke="#c7dcfa"/>
  <text x="756" y="520" font-size="20" font-family="Arial, sans-serif" fill="#2f548a">После этого витрина</text>
  <text x="756" y="550" font-size="20" font-family="Arial, sans-serif" fill="#2f548a">доступна в mini-app</text>
</svg>

