<svg xmlns="http://www.w3.org/2000/svg" width="1200" height="700" viewBox="0 0 1200 700">
  <defs>
    <linearGradient id="bg3" x1="0" y1="0" x2="1" y2="1">
      <stop offset="0%" stop-color="#eef6ff"/>
      <stop offset="100%" stop-color="#dcecff"/>
    </linearGradient>
  </defs>
  <rect width="1200" height="700" fill="url(#bg3)"/>
  <rect x="100" y="70" width="1000" height="560" rx="24" fill="#ffffff" stroke="#c7daf7" stroke-width="3"/>
  <text x="150" y="138" font-size="36" font-family="Arial, sans-serif" fill="#214a82" font-weight="700">https://e-tgo.ru/create-shop</text>
  <rect x="150" y="178" width="460" height="380" rx="16" fill="#f5f9ff" stroke="#d7e6ff"/>
  <text x="180" y="230" font-size="30" font-family="Arial, sans-serif" fill="#214879" font-weight="700">Создание магазина</text>
  <rect x="180" y="260" width="400" height="46" rx="10" fill="#ffffff" stroke="#c9dbf8"/>
  <text x="198" y="290" font-size="20" font-family="Arial, sans-serif" fill="#5a759f">Название магазина</text>
  <rect x="180" y="322" width="400" height="46" rx="10" fill="#ffffff" stroke="#c9dbf8"/>
  <text x="198" y="352" font-size="20" font-family="Arial, sans-serif" fill="#5a759f">Токен Telegram бота</text>
  <rect x="180" y="384" width="400" height="46" rx="10" fill="#ffffff" stroke="#c9dbf8"/>
  <text x="198" y="414" font-size="20" font-family="Arial, sans-serif" fill="#5a759f">Доставка / цена</text>
  <rect x="180" y="458" width="400" height="70" rx="12" fill="#1d63df"/>
  <text x="262" y="503" font-size="28" font-family="Arial, sans-serif" fill="#fff" font-weight="700">Сохранить магазин</text>
  <rect x="650" y="178" width="390" height="380" rx="16" fill="#f3f8ff" stroke="#d2e2fb"/>
  <text x="680" y="230" font-size="30" font-family="Arial, sans-serif" fill="#214879" font-weight="700">Что проверить</text>
  <text x="680" y="285" font-size="23" font-family="Arial, sans-serif" fill="#345b92">1. Токен вставлен без ошибок</text>
  <text x="680" y="325" font-size="23" font-family="Arial, sans-serif" fill="#345b92">2. Нажмите "Подключить бота"</text>
  <text x="680" y="365" font-size="23" font-family="Arial, sans-serif" fill="#345b92">3. Откройте mini-app URL</text>
  <text x="680" y="405" font-size="23" font-family="Arial, sans-serif" fill="#345b92">4. Проверьте витрину товаров</text>
  <rect x="680" y="445" width="320" height="90" rx="12" fill="#e4efff" stroke="#c3d9fa"/>
  <text x="704" y="493" font-size="20" font-family="Arial, sans-serif" fill="#2e5287">После этого магазин</text>
  <text x="704" y="520" font-size="20" font-family="Arial, sans-serif" fill="#2e5287">виден в Telegram mini-app</text>
</svg>

